<?xml version="1.0" standalone="no"?>
<!DOCTYPE svg PUBLIC "-//W3C//DTD SVG 20010904//EN"
 "http://www.w3.org/TR/2001/REC-SVG-20010904/DTD/svg10.dtd">
<svg version="1.0" xmlns="http://www.w3.org/2000/svg"
 width="512.000000pt" height="512.000000pt" viewBox="0 0 512.000000 512.000000"
 preserveAspectRatio="xMidYMid meet">
<metadata>
Created by potrace 1.14, written by Peter Selinger 2001-2017
</metadata>
<g transform="translate(0.000000,512.000000) scale(0.100000,-0.100000)"
fill="#000000" stroke="none">
<path d="M2158 5115 c-2 -2 -30 -5 -63 -8 -76 -8 -135 -16 -157 -23 -9 -3 -25
-7 -36 -9 -58 -11 -239 -79 -308 -115 -344 -183 -555 -460 -630 -830 -2 -14
-7 -67 -11 -118 -5 -86 -9 -98 -43 -150 -76 -117 -108 -230 -105 -368 3 -103
18 -159 73 -274 28 -57 45 -107 44 -125 -12 -201 -11 -234 8 -291 38 -110 121
-214 250 -316 41 -32 81 -63 88 -69 11 -9 10 -15 -6 -33 -40 -42 -124 -193
-256 -459 -74 -150 -158 -312 -187 -362 -113 -196 -189 -368 -206 -470 -3 -16
-9 -50 -13 -75 -14 -72 -7 -310 10 -344 22 -44 64 -70 106 -68 53 4 78 25 129
110 60 102 65 107 100 110 42 3 96 22 123 43 13 10 49 25 80 34 62 18 152 63
152 77 0 19 35 5 77 -32 28 -24 60 -42 86 -47 l41 -8 3 -155 c6 -371 10 -416
36 -473 40 -87 131 -146 233 -151 42 -2 192 27 222 43 36 19 51 59 66 172 9
63 18 123 20 134 3 11 5 37 5 58 2 66 16 39 19 -36 1 -39 4 -79 6 -87 1 -8 6
-33 11 -55 15 -73 66 -146 131 -186 37 -22 124 -50 135 -43 5 3 25 -6 46 -20
61 -41 124 -59 283 -82 53 -7 312 -8 355 0 27 4 58 9 142 21 49 7 175 42 244
68 203 77 260 187 234 457 -16 168 -16 170 -41 279 -8 36 -17 77 -20 91 -10
46 -67 205 -80 225 -21 29 -17 48 16 90 16 20 32 45 35 55 3 11 30 27 68 41
90 33 271 128 357 187 185 129 348 303 468 500 67 111 25 191 -109 208 -30 3
-70 9 -89 11 -58 8 -520 11 -591 4 l-66 -6 -17 54 c-30 97 -107 170 -220 207
-61 20 -70 31 -46 56 62 67 106 236 114 438 0 14 9 31 18 38 45 33 117 227
136 369 20 151 -7 295 -76 397 -28 41 -32 57 -37 139 -8 137 -13 168 -52 297
-63 215 -206 431 -385 582 -220 187 -490 285 -800 292 -65 2 -119 2 -120 1z"/>
</g>
</svg>
